<svg height="512pt" viewBox="-43 0 512 512" width="512pt" xmlns="http://www.w3.org/2000/svg"><path d="M269.645 88.977H156.582c-8.285 0-15-6.715-15-15V28.043C141.582 12.582 154.152 0 169.605 0h87.012c15.453 0 28.028 12.582 28.028 28.043v45.934c0 8.285-6.72 15-15 15zm-98.063-30h83.063V30h-83.063zM256.617 30h.008zm125.074 92.664a14.997 14.997 0 00-11.023-4.828H55.558c-4.187 0-8.187 1.75-11.027 4.828a15.004 15.004 0 00-3.926 11.379L67.73 469.437C69.66 493.305 89.914 512 113.836 512h198.55c23.926 0 44.176-18.695 46.106-42.563l27.125-335.394c.34-4.176-1.086-8.3-3.926-11.379zm0 0" fill="#bec3d2"/><path d="M55.559 117.836c-4.188 0-8.188 1.75-11.028 4.828a15.004 15.004 0 00-3.926 11.379L67.73 469.437C69.66 493.305 89.914 512 113.836 512h99.277V117.836zm0 0" fill="#dce1eb"/><path d="M425.453 128.086L405.816 69.23a14.997 14.997 0 00-14.226-10.253H34.633A14.994 14.994 0 0020.406 69.23L.77 128.086A15.004 15.004 0 0015 147.832h396.223a14.998 14.998 0 0014.23-19.746zm0 0" fill="#dce1eb"/><path d="M287.332 465.977c-.262 0-.523-.004-.793-.02-8.27-.43-14.629-7.488-14.2-15.762l14.087-270.398c.43-8.274 7.472-14.64 15.758-14.2 8.273.43 14.628 7.489 14.199 15.762L302.3 451.758c-.418 8.008-7.043 14.219-14.969 14.219zm0 0" fill="#9196aa"/><path d="M139.555 465.977c-7.91 0-14.528-6.188-14.961-14.184L109.84 181.395c-.45-8.274 5.89-15.344 14.16-15.793 8.266-.454 15.348 5.886 15.797 14.16l14.75 270.398c.453 8.274-5.887 15.344-14.16 15.793a14.79 14.79 0 01-.832.024zm0 0" fill="#bec3d2"/><path d="M213.277 465.977c-8.28 0-15-6.715-15-15V180.578c0-8.285 6.72-15 15-15 8.286 0 15 6.715 15 15v270.399c0 8.285-6.714 15-15 15zm0 0" fill="#9196aa"/><path d="M198.277 180.578v270.399c0 8.226 6.63 14.902 14.836 14.992V165.586c-8.207.09-14.836 6.762-14.836 14.992zm0 0" fill="#bec3d2"/><path d="M171.582 58.977V30h41.531V0h-43.508c-15.453 0-28.023 12.582-28.023 28.043v45.934c0 8.285 6.715 15 15 15h56.531v-30zm0 0" fill="#dce1eb"/><path d="M36.29 58.977A15.002 15.002 0 0022.058 69.23L2.426 128.086a15.004 15.004 0 0014.23 19.746h198.11V58.977zm0 0" fill="#f2f6fc"/></svg>