<svg xmlns="http://www.w3.org/2000/svg" viewBox="0 0 100 125"><path d="M88.038 19.679H67.66v-5.142C67.66 9.278 63.382 5 58.123 5H41.877c-5.259 0-9.537 4.278-9.537 9.538v5.142H11.962a3 3 0 100 6h4.458l6.114 55.755A14.022 14.022 0 0036.504 94h26.992a14.02 14.02 0 0013.969-12.559l6.115-55.762h4.458a3 3 0 100-6zM38.34 14.538A3.542 3.542 0 0141.877 11h16.246a3.542 3.542 0 013.537 3.538v5.142H38.34v-5.142zm2.092 67.279c-.048.002-.096.004-.143.004a2.5 2.5 0 01-2.494-2.359L35.322 35.5a2.501 2.501 0 012.355-2.637 2.498 2.498 0 012.637 2.355l2.473 43.962a2.5 2.5 0 01-2.355 2.637zm21.773-2.356a2.5 2.5 0 11-4.992-.282l2.473-43.962a2.5 2.5 0 014.992.282l-2.473 43.962z"/><text y="115" font-size="5" font-weight="bold" font-family="'Helvetica Neue', Helvetica, Arial-Unicode, Arial, Sans-serif">Created by Maxim Kulikov</text><text y="120" font-size="5" font-weight="bold" font-family="'Helvetica Neue', Helvetica, Arial-Unicode, Arial, Sans-serif">from the Noun Project</text></svg>