<svg xmlns="http://www.w3.org/2000/svg" xmlns:xlink="http://www.w3.org/1999/xlink" version="1.1" x="0px" y="0px" viewBox="0 0 100 125" style="enable-background:new 0 0 100 100;" xml:space="preserve"><g><path d="M88.038,19.679H67.66v-5.142C67.66,9.278,63.382,5,58.123,5H41.877c-5.259,0-9.537,4.278-9.537,9.538v5.142H11.962   c-1.657,0-3,1.343-3,3s1.343,3,3,3h4.458l6.114,55.755C23.295,88.598,29.301,94,36.504,94h26.992   c7.203,0,13.209-5.402,13.969-12.559l6.115-55.762h4.458c1.657,0,3-1.343,3-3S89.695,19.679,88.038,19.679z M38.34,14.538   c0-1.951,1.587-3.538,3.537-3.538h16.246c1.95,0,3.537,1.587,3.537,3.538v5.142H38.34V14.538z M40.432,81.817   c-0.048,0.002-0.096,0.004-0.143,0.004c-1.316,0-2.419-1.029-2.494-2.359l-2.473-43.962c-0.077-1.379,0.978-2.559,2.355-2.637   c1.387-0.075,2.559,0.978,2.637,2.355l2.473,43.962C42.864,80.559,41.81,81.739,40.432,81.817z M62.205,79.461   c-0.075,1.331-1.178,2.359-2.494,2.359c-0.047,0-0.095-0.001-0.143-0.004c-1.378-0.078-2.433-1.258-2.355-2.637l2.473-43.962   c0.078-1.378,1.248-2.43,2.637-2.355c1.378,0.078,2.433,1.258,2.355,2.637L62.205,79.461z"/></g><text x="0" y="115" fill="#000000" font-size="5px" font-weight="bold" font-family="'Helvetica Neue', Helvetica, Arial-Unicode, Arial, Sans-serif">Created by Maxim Kulikov</text><text x="0" y="120" fill="#000000" font-size="5px" font-weight="bold" font-family="'Helvetica Neue', Helvetica, Arial-Unicode, Arial, Sans-serif">from the Noun Project</text></svg>